<?xml version="1.0" standalone="no"?>
<!DOCTYPE svg PUBLIC "-//W3C//DTD SVG 20010904//EN"
 "http://www.w3.org/TR/2001/REC-SVG-20010904/DTD/svg10.dtd">
<svg version="1.0" xmlns="http://www.w3.org/2000/svg"
 width="494.000000pt" height="505.000000pt" viewBox="0 0 494.000000 505.000000"
 preserveAspectRatio="xMidYMid meet">

<g transform="translate(0.000000,505.000000) scale(0.100000,-0.100000)"
fill="#000000" stroke="none">
<path d="M2355 4800 c-481 -55 -941 -255 -1370 -596 -118 -94 -435 -405 -499
-491 -22 -29 -42 -50 -44 -48 -7 7 55 127 106 204 99 152 328 397 532 570 119
101 118 103 -8 19 -195 -131 -413 -337 -565 -536 -638 -833 -672 -1969 -86
-2848 122 -183 356 -433 519 -555 418 -314 837 -473 1340 -510 500 -37 1031
100 1468 378 58 37 232 162 232 167 0 2 -69 -31 -153 -73 -244 -121 -471 -197
-738 -245 -980 -179 -1969 195 -2505 949 -317 446 -385 924 -189 1333 63 132
135 232 245 342 173 174 405 322 648 416 41 16 69 30 63 32 -6 2 -59 -8 -119
-22 -292 -68 -543 -195 -723 -364 -132 -124 -212 -245 -275 -415 l-35 -92 6
100 c7 131 46 317 96 463 251 728 856 1320 1489 1458 41 9 136 18 211 21 230
9 415 -25 559 -105 81 -44 187 -150 223 -222 32 -63 34 -50 8 37 -48 156 -159
276 -311 333 -54 20 -57 29 -9 23 500 -59 841 -185 1079 -400 53 -48 60 -52
40 -23 -42 60 -192 204 -270 259 -334 235 -791 316 -1334 235 -54 -8 -101 -12
-104 -9 -3 3 -3 5 1 5 3 0 59 15 124 34 259 74 499 108 773 108 180 0 446 -27
560 -57 92 -24 67 -8 -38 24 -113 35 -282 74 -392 90 -101 15 -456 22 -555 11z"/>
<path d="M2340 3574 c-67 -13 -199 -59 -246 -85 -61 -35 -140 -116 -150 -154
-11 -43 3 -195 22 -250 51 -144 130 -204 213 -160 49 25 71 86 72 201 l0 99
21 -50 c54 -133 26 -245 -74 -296 -44 -23 -108 -25 -147 -5 -41 22 -91 82
-121 149 l-26 58 -43 -176 c-24 -97 -41 -178 -39 -181 3 -2 77 -16 164 -29
197 -31 360 -75 459 -125 l75 -38 0 43 c0 53 42 139 112 226 73 91 128 135
227 181 93 43 175 99 193 131 7 12 12 49 13 82 0 33 4 83 9 111 7 41 5 54 -8
67 -24 24 -82 37 -207 47 l-110 9 -53 45 c-80 69 -155 99 -251 102 -44 1 -91
0 -105 -2z"/>
<path d="M1752 2568 c-23 -35 -37 -50 -197 -224 -176 -191 -362 -440 -491
-656 -111 -187 -150 -273 -193 -427 l-26 -94 -43 -12 c-78 -23 -77 -23 -58
-44 16 -17 21 -18 63 -5 54 16 102 18 137 4 20 -7 26 -17 26 -39 0 -36 -28
-59 -83 -68 l-39 -6 58 -58 58 -59 34 68 c49 97 106 167 194 236 81 64 110 81
358 200 165 79 243 104 350 113 123 10 284 -48 377 -136 24 -23 35 -47 47
-100 42 -185 2 -336 -132 -505 -36 -45 -75 -104 -88 -132 -24 -55 -51 -170
-56 -244 l-3 -45 85 -17 c47 -10 148 -23 226 -30 122 -10 147 -10 180 3 36 14
39 18 38 51 -1 25 -13 52 -38 86 -44 61 -81 141 -69 152 4 5 20 11 34 15 57
14 137 -104 162 -240 l13 -70 60 -3 c32 -2 74 0 91 3 l33 6 -20 27 c-12 16
-25 58 -31 95 -16 105 -1 155 79 268 134 186 242 378 242 428 0 27 -4 31 -37
36 -122 20 -309 87 -403 145 l-45 27 -140 -7 c-77 -4 -141 -7 -142 -6 -2 1 -4
13 -5 27 -2 18 2 25 20 27 13 2 22 10 22 20 0 10 5 89 11 177 9 147 12 163 36
198 52 75 59 168 19 244 -14 28 -4 130 34 333 11 58 20 111 20 118 0 17 -66
45 -193 81 -155 45 -258 62 -412 68 l-140 5 -23 -34z m149 -387 c32 -76 46
-84 115 -72 105 20 125 16 197 -42 27 -21 54 -31 107 -39 79 -12 102 -30 120
-99 17 -63 -11 -138 -75 -199 -60 -58 -96 -122 -102 -185 -3 -31 -9 -54 -12
-53 -3 2 -30 15 -58 31 -76 39 -160 57 -314 64 l-136 6 -7 116 c-3 64 -9 150
-12 192 -9 109 17 185 92 268 31 33 57 61 60 61 2 0 13 -22 25 -49z"/>
<path d="M2534 2125 c-23 -36 -14 -91 46 -265 32 -94 67 -172 97 -220 55 -88
60 -135 24 -221 -28 -63 -32 -58 99 -124 247 -124 409 -136 464 -33 28 53 16
123 -27 148 -18 11 -41 32 -51 48 -24 36 -104 92 -132 92 -38 0 -115 32 -129
54 -9 15 -14 73 -18 196 -5 197 -21 268 -69 303 -33 24 -83 26 -105 4 -15 -15
-15 -19 -1 -54 93 -225 137 -335 146 -372 14 -56 2 -42 -27 34 -67 169 -160
343 -219 408 -33 35 -75 36 -98 2z"/>
<path d="M1718 817 c56 -60 84 -221 59 -339 l-14 -67 30 -7 c36 -8 42 0 58 84
24 129 -11 246 -95 318 -45 39 -71 46 -38 11z"/>
</g>
</svg>
